<mxfile host="app.diagrams.net" modified="2022-11-27T18:11:21.480Z" agent="5.0 (X11; Linux x86_64) AppleWebKit/537.36 (KHTML, like Gecko) Chrome/107.0.0.0 Safari/537.36" version="20.6.0" etag="yL-NaM-_GSeuTGD6PMmt" type="github">
  <diagram id="AtC6eObACVCc1TzP8NxM" name="第 1 页">
    <mxGraphModel dx="1710" dy="982" grid="1" gridSize="10" guides="1" tooltips="1" connect="1" arrows="1" fold="1" page="1" pageScale="1" pageWidth="1920" pageHeight="1200" math="0" shadow="0">
      <root>
        <mxCell id="0" />
        <mxCell id="1" parent="0" />
        <mxCell id="tPhnW6z4irrS7ZTCAXwX-6" style="edgeStyle=orthogonalEdgeStyle;rounded=0;orthogonalLoop=1;jettySize=auto;html=1;entryX=-0.028;entryY=0.569;entryDx=0;entryDy=0;entryPerimeter=0;startArrow=classic;startFill=1;" edge="1" parent="1" source="tPhnW6z4irrS7ZTCAXwX-1" target="tPhnW6z4irrS7ZTCAXwX-2">
          <mxGeometry relative="1" as="geometry" />
        </mxCell>
        <mxCell id="tPhnW6z4irrS7ZTCAXwX-1" value="API Server" style="rounded=1;whiteSpace=wrap;html=1;fillColor=#dae8fc;strokeColor=#6c8ebf;" vertex="1" parent="1">
          <mxGeometry x="360" y="100" width="120" height="60" as="geometry" />
        </mxCell>
        <mxCell id="tPhnW6z4irrS7ZTCAXwX-2" value="" style="shape=cylinder3;whiteSpace=wrap;html=1;boundedLbl=1;backgroundOutline=1;size=15;fillColor=#fff2cc;strokeColor=#d6b656;" vertex="1" parent="1">
          <mxGeometry x="620" y="85" width="60" height="80" as="geometry" />
        </mxCell>
        <mxCell id="tPhnW6z4irrS7ZTCAXwX-3" value="etcd" style="shape=cylinder3;whiteSpace=wrap;html=1;boundedLbl=1;backgroundOutline=1;size=15;fillColor=#fff2cc;strokeColor=#d6b656;" vertex="1" parent="1">
          <mxGeometry x="630" y="95" width="60" height="80" as="geometry" />
        </mxCell>
        <mxCell id="tPhnW6z4irrS7ZTCAXwX-5" style="edgeStyle=orthogonalEdgeStyle;rounded=0;orthogonalLoop=1;jettySize=auto;html=1;entryX=0;entryY=0.5;entryDx=0;entryDy=0;startArrow=classic;startFill=1;" edge="1" parent="1" source="tPhnW6z4irrS7ZTCAXwX-4" target="tPhnW6z4irrS7ZTCAXwX-1">
          <mxGeometry relative="1" as="geometry" />
        </mxCell>
        <mxCell id="tPhnW6z4irrS7ZTCAXwX-4" value="Actor" style="shape=umlActor;verticalLabelPosition=bottom;verticalAlign=top;html=1;outlineConnect=0;" vertex="1" parent="1">
          <mxGeometry x="160" y="100" width="30" height="60" as="geometry" />
        </mxCell>
        <mxCell id="tPhnW6z4irrS7ZTCAXwX-7" value="API Server" style="rounded=1;whiteSpace=wrap;html=1;fillColor=#dae8fc;strokeColor=#6c8ebf;" vertex="1" parent="1">
          <mxGeometry x="120" y="330" width="120" height="60" as="geometry" />
        </mxCell>
        <mxCell id="tPhnW6z4irrS7ZTCAXwX-11" value="1" style="edgeStyle=orthogonalEdgeStyle;rounded=0;orthogonalLoop=1;jettySize=auto;html=1;startArrow=classic;startFill=1;" edge="1" parent="1" source="tPhnW6z4irrS7ZTCAXwX-8" target="tPhnW6z4irrS7ZTCAXwX-7">
          <mxGeometry relative="1" as="geometry" />
        </mxCell>
        <mxCell id="tPhnW6z4irrS7ZTCAXwX-12" value="检查api指令" style="edgeLabel;html=1;align=center;verticalAlign=middle;resizable=0;points=[];" vertex="1" connectable="0" parent="tPhnW6z4irrS7ZTCAXwX-11">
          <mxGeometry x="-0.2727" y="1" relative="1" as="geometry">
            <mxPoint x="-20" y="-21" as="offset" />
          </mxGeometry>
        </mxCell>
        <mxCell id="tPhnW6z4irrS7ZTCAXwX-17" value="2" style="edgeStyle=orthogonalEdgeStyle;rounded=0;orthogonalLoop=1;jettySize=auto;html=1;entryX=0.028;entryY=0.569;entryDx=0;entryDy=0;entryPerimeter=0;startArrow=classic;startFill=1;" edge="1" parent="1" source="tPhnW6z4irrS7ZTCAXwX-8" target="tPhnW6z4irrS7ZTCAXwX-15">
          <mxGeometry relative="1" as="geometry" />
        </mxCell>
        <mxCell id="tPhnW6z4irrS7ZTCAXwX-19" value="3" style="edgeStyle=orthogonalEdgeStyle;rounded=0;orthogonalLoop=1;jettySize=auto;html=1;entryX=0.5;entryY=1;entryDx=0;entryDy=0;entryPerimeter=0;startArrow=none;startFill=0;exitX=0.5;exitY=1;exitDx=0;exitDy=0;endArrow=classic;endFill=1;" edge="1" parent="1" source="tPhnW6z4irrS7ZTCAXwX-8" target="tPhnW6z4irrS7ZTCAXwX-16">
          <mxGeometry relative="1" as="geometry" />
        </mxCell>
        <mxCell id="tPhnW6z4irrS7ZTCAXwX-8" value="Scheduler" style="rounded=1;whiteSpace=wrap;html=1;fillColor=#f8cecc;strokeColor=#b85450;" vertex="1" parent="1">
          <mxGeometry x="350" y="330" width="120" height="60" as="geometry" />
        </mxCell>
        <mxCell id="tPhnW6z4irrS7ZTCAXwX-15" value="" style="shape=cylinder3;whiteSpace=wrap;html=1;boundedLbl=1;backgroundOutline=1;size=15;fillColor=#fff2cc;strokeColor=#d6b656;" vertex="1" parent="1">
          <mxGeometry x="600" y="315" width="60" height="80" as="geometry" />
        </mxCell>
        <mxCell id="tPhnW6z4irrS7ZTCAXwX-16" value="etcd" style="shape=cylinder3;whiteSpace=wrap;html=1;boundedLbl=1;backgroundOutline=1;size=15;fillColor=#fff2cc;strokeColor=#d6b656;" vertex="1" parent="1">
          <mxGeometry x="610" y="325" width="60" height="80" as="geometry" />
        </mxCell>
        <mxCell id="tPhnW6z4irrS7ZTCAXwX-18" value="获取POD信息" style="edgeLabel;html=1;align=center;verticalAlign=middle;resizable=0;points=[];" vertex="1" connectable="0" parent="1">
          <mxGeometry x="530" y="340" as="geometry" />
        </mxCell>
        <mxCell id="tPhnW6z4irrS7ZTCAXwX-20" value="根据调度策略分配node， 并把信息写入ectd" style="edgeLabel;html=1;align=center;verticalAlign=middle;resizable=0;points=[];" vertex="1" connectable="0" parent="1">
          <mxGeometry x="530" y="350" as="geometry">
            <mxPoint x="-15" y="101" as="offset" />
          </mxGeometry>
        </mxCell>
        <mxCell id="tPhnW6z4irrS7ZTCAXwX-21" value="API Server" style="rounded=1;whiteSpace=wrap;html=1;fillColor=#dae8fc;strokeColor=#6c8ebf;" vertex="1" parent="1">
          <mxGeometry x="120" y="560" width="120" height="60" as="geometry" />
        </mxCell>
        <mxCell id="tPhnW6z4irrS7ZTCAXwX-22" value="1" style="edgeStyle=orthogonalEdgeStyle;rounded=0;orthogonalLoop=1;jettySize=auto;html=1;startArrow=classic;startFill=1;" edge="1" parent="1" source="tPhnW6z4irrS7ZTCAXwX-26" target="tPhnW6z4irrS7ZTCAXwX-21">
          <mxGeometry relative="1" as="geometry" />
        </mxCell>
        <mxCell id="tPhnW6z4irrS7ZTCAXwX-23" value="检查api指令" style="edgeLabel;html=1;align=center;verticalAlign=middle;resizable=0;points=[];" vertex="1" connectable="0" parent="tPhnW6z4irrS7ZTCAXwX-22">
          <mxGeometry x="-0.2727" y="1" relative="1" as="geometry">
            <mxPoint x="-20" y="-21" as="offset" />
          </mxGeometry>
        </mxCell>
        <mxCell id="tPhnW6z4irrS7ZTCAXwX-24" value="2" style="edgeStyle=orthogonalEdgeStyle;rounded=0;orthogonalLoop=1;jettySize=auto;html=1;entryX=0.028;entryY=0.569;entryDx=0;entryDy=0;entryPerimeter=0;startArrow=classic;startFill=1;" edge="1" parent="1" source="tPhnW6z4irrS7ZTCAXwX-26" target="tPhnW6z4irrS7ZTCAXwX-27">
          <mxGeometry relative="1" as="geometry" />
        </mxCell>
        <mxCell id="tPhnW6z4irrS7ZTCAXwX-32" value="3" style="edgeStyle=orthogonalEdgeStyle;rounded=0;orthogonalLoop=1;jettySize=auto;html=1;startArrow=none;startFill=0;endArrow=classic;endFill=1;" edge="1" parent="1" source="tPhnW6z4irrS7ZTCAXwX-26" target="tPhnW6z4irrS7ZTCAXwX-31">
          <mxGeometry relative="1" as="geometry" />
        </mxCell>
        <mxCell id="tPhnW6z4irrS7ZTCAXwX-26" value="Kubelet （node）" style="rounded=1;whiteSpace=wrap;html=1;fillColor=#d5e8d4;strokeColor=#82b366;" vertex="1" parent="1">
          <mxGeometry x="350" y="560" width="120" height="60" as="geometry" />
        </mxCell>
        <mxCell id="tPhnW6z4irrS7ZTCAXwX-27" value="" style="shape=cylinder3;whiteSpace=wrap;html=1;boundedLbl=1;backgroundOutline=1;size=15;fillColor=#fff2cc;strokeColor=#d6b656;" vertex="1" parent="1">
          <mxGeometry x="600" y="545" width="60" height="80" as="geometry" />
        </mxCell>
        <mxCell id="tPhnW6z4irrS7ZTCAXwX-28" value="etcd" style="shape=cylinder3;whiteSpace=wrap;html=1;boundedLbl=1;backgroundOutline=1;size=15;fillColor=#fff2cc;strokeColor=#d6b656;" vertex="1" parent="1">
          <mxGeometry x="610" y="555" width="60" height="80" as="geometry" />
        </mxCell>
        <mxCell id="tPhnW6z4irrS7ZTCAXwX-29" value="获取POD信息" style="edgeLabel;html=1;align=center;verticalAlign=middle;resizable=0;points=[];" vertex="1" connectable="0" parent="1">
          <mxGeometry x="530" y="570" as="geometry">
            <mxPoint x="3" y="-3" as="offset" />
          </mxGeometry>
        </mxCell>
        <mxCell id="tPhnW6z4irrS7ZTCAXwX-31" value="docker" style="rounded=1;whiteSpace=wrap;html=1;fillColor=#e1d5e7;strokeColor=#9673a6;" vertex="1" parent="1">
          <mxGeometry x="350" y="700" width="120" height="60" as="geometry" />
        </mxCell>
        <mxCell id="tPhnW6z4irrS7ZTCAXwX-33" value="create pod" style="edgeLabel;html=1;align=center;verticalAlign=middle;resizable=0;points=[];" vertex="1" connectable="0" parent="1">
          <mxGeometry x="450" y="650" as="geometry">
            <mxPoint x="16" y="4" as="offset" />
          </mxGeometry>
        </mxCell>
      </root>
    </mxGraphModel>
  </diagram>
</mxfile>
